<svg width="297" height="297" viewBox="0 0 297 297" xmlns="http://www.w3.org/2000/svg">
    <g filter="url(#lightModeShadow)">
        <path fill="url(#lightModeGradient)" fill-opacity="0.40"
              d="M30 128.5L148.5 10L267 128.5L148.5 247L30 128.5Z"/>
        <path fill="url(#lightModeGradient)" fill-opacity="1"
              d="M42 116.5L46.5 112L148.5 142.062L250.5 112L255 116.5L148.5 149L42 116.5Z"/>
        <path fill="url(#lightModeGradient)" fill-opacity="1"
              d="M106.677 131.404L125.265 136.051L92.7355 191.816L101.119 157.293L106.677 131.404Z"/>
        <path fill="url(#lightModeGradient)" fill-opacity="1"
              d="M132.235 42.5294L97.3823 128.5L78.7941 123.853L132.235 42.5294Z"/>
        <path fill="url(#lightModeGradient)" fill-opacity="1"
              d="M148.5 149L255 116.5L267 128.5L148.5 247V149Z"/>
        <path fill="url(#lightModeGradient)" fill-opacity="0.50"
              d="M148.5 10L185.455 47.0526L250.5 112L148.5 142V10Z"/>
        <path fill="url(#lightModeGradient)" fill-opacity="1"
              d="M199.618 86.6766L234.471 128.5L220.529 140.118L199.618 86.6766Z"/>
        <path fill="url(#lightModeGradient)" fill-opacity="1"
              d="M160.118 42.5294L213.559 144.765L192.647 163.353L160.118 42.5294Z"/>
        <path fill="url(#lightModeGradient)" fill-opacity="1"
              d="M160.118 42.5294L213.559 144.765L192.647 163.353L160.118 42.5294Z"/>
        <path fill="url(#lightModeGradient)" fill-opacity="1"
              d="M160.118 42.5294L213.559 144.765L192.647 163.353L160.118 42.5294Z"/>
        <path fill="url(#lightModeGradient)" fill-opacity="0.15"
              d="M160.118 42.5294L213.559 144.765L192.647 163.353L160.118 42.5294Z"/>
    </g>
    <defs>
        <linearGradient id="lightModeGradient" x1="0%" y1="0%" x2="100%" y2="100%" gradientTransform="rotate(193)">
            <stop offset="0%" stop-color="#FCB045"/>
            <stop offset="35%" stop-color="red"/>
            <stop offset="57%" stop-color="orange"/>
            <stop offset="100%" stop-color="yellow"/>
        </linearGradient>
    </defs>
    <defs>
        <filter id="lightModeShadow" x="0" y="0" width="297" height="297" filterUnits="userSpaceOnUse"
                color-interpolation-filters="sRGB">
            <feFlood flood-opacity="0" result="BackgroundImageFix"/>
            <feColorMatrix in="SourceAlpha" values="0 0 0 0 0 0 0 0 0 0 0 0 0 0 0 0 0 0 127 0" result="hardAlpha"/>
            <feOffset dy="20"/>
            <feGaussianBlur stdDeviation="15"/>
            <feComposite in2="hardAlpha" operator="out"/>
            <feColorMatrix values="0 0 0 0 0 0 0 0 0 0 0 0 0 0 0 0 0 0 0.25 0"/>
            <feBlend in2="BackgroundImageFix" result="effect1_dropShadow_101_11"/>
            <feBlend in="SourceGraphic" in2="effect1_dropShadow_101_11" result="shape"/>
        </filter>
    </defs>
</svg>

