<svg xmlns="http://www.w3.org/2000/svg" version="1.1" xmlns:xlink="http://www.w3.org/1999/xlink" xmlns:svgjs="http://svgjs.com/svgjs" width="1000" height="1000"><style>
    #light-icon {
      display: inline;
    }
    #dark-icon {
      display: none;
    }

    @media (prefers-color-scheme: dark) {
      #light-icon {
        display: none;
      }
      #dark-icon {
        display: inline;
      }
    }
  </style><g id="light-icon"><svg xmlns="http://www.w3.org/2000/svg" version="1.1" xmlns:xlink="http://www.w3.org/1999/xlink" xmlns:svgjs="http://svgjs.com/svgjs" width="1000" height="1000"><rect width="1000" height="1000" rx="200" ry="200" fill="#555555"></rect><g transform="matrix(2.356902356902357,0,0,2.356902356902357,150,177.13804713804717)"><svg xmlns="http://www.w3.org/2000/svg" version="1.1" xmlns:xlink="http://www.w3.org/1999/xlink" xmlns:svgjs="http://svgjs.com/svgjs" width="297" height="297"><svg width="297" height="297" viewBox="0 0 297 297" xmlns="http://www.w3.org/2000/svg">
    <g filter="url(#lightModeShadow)">
        <path fill="url(#lightModeGradient)" fill-opacity="0.40" d="M30 128.5L148.5 10L267 128.5L148.5 247L30 128.5Z"></path>
        <path fill="url(#lightModeGradient)" fill-opacity="1" d="M42 116.5L46.5 112L148.5 142.062L250.5 112L255 116.5L148.5 149L42 116.5Z"></path>
        <path fill="url(#lightModeGradient)" fill-opacity="1" d="M106.677 131.404L125.265 136.051L92.7355 191.816L101.119 157.293L106.677 131.404Z"></path>
        <path fill="url(#lightModeGradient)" fill-opacity="1" d="M132.235 42.5294L97.3823 128.5L78.7941 123.853L132.235 42.5294Z"></path>
        <path fill="url(#lightModeGradient)" fill-opacity="1" d="M148.5 149L255 116.5L267 128.5L148.5 247V149Z"></path>
        <path fill="url(#lightModeGradient)" fill-opacity="0.50" d="M148.5 10L185.455 47.0526L250.5 112L148.5 142V10Z"></path>
        <path fill="url(#lightModeGradient)" fill-opacity="1" d="M199.618 86.6766L234.471 128.5L220.529 140.118L199.618 86.6766Z"></path>
        <path fill="url(#lightModeGradient)" fill-opacity="1" d="M160.118 42.5294L213.559 144.765L192.647 163.353L160.118 42.5294Z"></path>
        <path fill="url(#lightModeGradient)" fill-opacity="1" d="M160.118 42.5294L213.559 144.765L192.647 163.353L160.118 42.5294Z"></path>
        <path fill="url(#lightModeGradient)" fill-opacity="1" d="M160.118 42.5294L213.559 144.765L192.647 163.353L160.118 42.5294Z"></path>
        <path fill="url(#lightModeGradient)" fill-opacity="0.15" d="M160.118 42.5294L213.559 144.765L192.647 163.353L160.118 42.5294Z"></path>
    </g>
    <defs>
        <linearGradient id="lightModeGradient" x1="0%" y1="0%" x2="100%" y2="100%" gradientTransform="rotate(193)">
            <stop offset="0%" stop-color="#FCB045"></stop>
            <stop offset="35%" stop-color="red"></stop>
            <stop offset="57%" stop-color="orange"></stop>
            <stop offset="100%" stop-color="yellow"></stop>
        </linearGradient>
    </defs>
    <defs>
        <filter id="lightModeShadow" x="0" y="0" width="297" height="297" filterUnits="userSpaceOnUse" color-interpolation-filters="sRGB">
            <feFlood flood-opacity="0" result="BackgroundImageFix"></feFlood>
            <feColorMatrix in="SourceAlpha" values="0 0 0 0 0 0 0 0 0 0 0 0 0 0 0 0 0 0 127 0" result="hardAlpha"></feColorMatrix>
            <feOffset dy="20"></feOffset>
            <feGaussianBlur stdDeviation="15"></feGaussianBlur>
            <feComposite in2="hardAlpha" operator="out"></feComposite>
            <feColorMatrix values="0 0 0 0 0 0 0 0 0 0 0 0 0 0 0 0 0 0 0.25 0"></feColorMatrix>
            <feBlend in2="BackgroundImageFix" result="effect1_dropShadow_101_11"></feBlend>
            <feBlend in="SourceGraphic" in2="effect1_dropShadow_101_11" result="shape"></feBlend>
        </filter>
    </defs>
</svg></svg></g></svg></g><g id="dark-icon"><svg xmlns="http://www.w3.org/2000/svg" version="1.1" xmlns:xlink="http://www.w3.org/1999/xlink" xmlns:svgjs="http://svgjs.com/svgjs" width="1000" height="1000"><g transform="matrix(3.367003367003367,0,0,3.367003367003367,-5.684341886080802e-14,47.34006734006732)"><svg xmlns="http://www.w3.org/2000/svg" version="1.1" xmlns:xlink="http://www.w3.org/1999/xlink" xmlns:svgjs="http://svgjs.com/svgjs" width="297" height="297"><svg width="297" height="297" viewBox="0 0 297 297" xmlns="http://www.w3.org/2000/svg">
    <g filter="url(#darkModeShadow)">
        <path fill="url(#darkModeGradient)" fill-opacity="0.40" d="M30 128.5L148.5 10L267 128.5L148.5 247L30 128.5Z"></path>
        <path fill="url(#darkModeGradient)" fill-opacity="1" d="M42 116.5L46.5 112L148.5 142.062L250.5 112L255 116.5L148.5 149L42 116.5Z"></path>
        <path fill="url(#darkModeGradient)" fill-opacity="1" d="M106.677 131.404L125.265 136.051L92.7355 191.816L101.119 157.293L106.677 131.404Z"></path>
        <path fill="url(#darkModeGradient)" fill-opacity="1" d="M132.235 42.5294L97.3823 128.5L78.7941 123.853L132.235 42.5294Z"></path>
        <path fill="url(#darkModeGradient)" fill-opacity="1" d="M148.5 149L255 116.5L267 128.5L148.5 247V149Z"></path>
        <path fill="url(#darkModeGradient)" fill-opacity="0.50" d="M148.5 10L185.455 47.0526L250.5 112L148.5 142V10Z"></path>
        <path fill="url(#darkModeGradient)" fill-opacity="1" d="M199.618 86.6766L234.471 128.5L220.529 140.118L199.618 86.6766Z"></path>
        <path fill="url(#darkModeGradient)" fill-opacity="1" d="M160.118 42.5294L213.559 144.765L192.647 163.353L160.118 42.5294Z"></path>
        <path fill="url(#darkModeGradient)" fill-opacity="1" d="M160.118 42.5294L213.559 144.765L192.647 163.353L160.118 42.5294Z"></path>
        <path fill="url(#darkModeGradient)" fill-opacity="1" d="M160.118 42.5294L213.559 144.765L192.647 163.353L160.118 42.5294Z"></path>
        <path fill="url(#darkModeGradient)" fill-opacity="0.15" d="M160.118 42.5294L213.559 144.765L192.647 163.353L160.118 42.5294Z"></path>
    </g>
    <defs>
        <linearGradient id="darkModeGradient" x1="0%" y1="0%" x2="100%" y2="100%" gradientTransform="rotate(193)">
            <stop offset="0%" stop-color="#00D4FF"></stop>
            <stop offset="35%" stop-color="blue"></stop>
            <stop offset="57%" stop-color="lightblue"></stop>
            <stop offset="100%" stop-color="grey"></stop>
        </linearGradient>
    </defs>
    <defs>
        <filter id="darkModeShadow" x="0" y="0" width="297" height="297" color-interpolation-filters="sRGB">
            <feFlood flood-opacity="0" result="BackgroundImageFix"></feFlood>
            <feColorMatrix in="SourceAlpha" values="0 0 0 0 0 0 0 0 0 0 0 0 0 0 0 0 0 0 127 0" result="hardAlpha"></feColorMatrix>
            <feOffset dy="20"></feOffset>
            <feGaussianBlur stdDeviation="15"></feGaussianBlur>
            <feComposite in2="hardAlpha" operator="out"></feComposite>
            <feColorMatrix values="1 0 0 0 1 0 1 0 0 1 0 1 0 1 0 0 0 0 0.25 0"></feColorMatrix>
            <feBlend in2="BackgroundImageFix" result="effect1_dropShadow_101_11"></feBlend>
            <feBlend in="SourceGraphic" in2="effect1_dropShadow_101_11" result="shape"></feBlend>
        </filter>
    </defs>
</svg></svg></g></svg></g></svg>